<?xml version="1.0" encoding="UTF-8"?>
<svg width="119px" height="67px" viewBox="0 0 119 67" version="1.1" xmlns="http://www.w3.org/2000/svg" xmlns:xlink="http://www.w3.org/1999/xlink">
    <!-- Generator: Sketch 39.1 (31720) - http://www.bohemiancoding.com/sketch -->
    <title>Artboard</title>
    <desc>Created with Sketch.</desc>
    <defs></defs>
    <g id="Page-1" stroke="none" stroke-width="1" fill="none" fill-rule="evenodd">
        <g id="Artboard">
            <g id="noun_3298_cc">
                <path d="M110.962403,43.08767 C104.043347,39.2532485 97.2053542,44.4188519 97.2053542,44.4188519 C97.2053542,44.4188519 88.150021,31.7019675 72.8336807,31.9323415 C66.0362202,32.0344661 60.5155187,33.49746 56.0534186,35.6183261 L52.3375848,32.4595893 C55.6969752,31.70078 71.4138674,25.8167421 71.4138674,25.8167421 C72.1315228,25.5566807 72.5010796,24.7681839 72.2400056,24.0556869 C71.9789316,23.3431899 71.1873648,22.9738789 70.4732857,23.2315654 L66.9899151,24.4903101 C69.7210589,21.4016355 72.2733849,17.8308379 72.6942028,17.2347154 C73.1340946,16.614843 72.9826955,15.7574716 72.3616017,15.3192859 C71.7381236,14.8834752 70.8762219,15.0319121 70.4375222,15.650597 C69.77232,16.5922806 68.6040437,18.1704615 67.2724472,19.8424545 C67.5359054,17.3178401 67.7659843,13.8479795 67.7755213,13.6876677 C67.8267824,12.9288584 67.2521812,12.2769236 66.4904174,12.2270488 C65.7036191,12.1712365 65.0729883,12.7507341 65.0229193,13.508356 C65.019343,13.5499183 64.7451557,17.6907135 64.4638157,20.1571407 C64.2718846,21.8267587 62.9760516,24.2563736 62.3287312,25.3334316 C61.8709576,25.7419299 61.4417949,26.082741 61.0638933,26.3119275 C57.8165621,28.2986067 49.2011207,30.4562852 49.114096,30.4776601 C48.6134062,30.6023471 48.2223913,30.9977829 48.1043715,31.4977183 C47.9863518,31.9976538 48.159209,32.5225266 48.551416,32.8585877 L53.4319497,37.0076953 C52.5986588,37.4957558 51.8130526,38.0063787 51.0644021,38.532439 L43.6303502,32.3835897 C46.4079867,29.9207249 53.1065013,23.8835001 55.2511228,21.0976368 C57.9596163,17.569589 62.2774701,6.31451099 62.4586721,5.83713798 C62.7304752,5.12582845 62.3728396,4.33258177 61.6599526,4.0618329 C60.9458735,3.79227152 60.1495383,4.14852003 59.8777352,4.85745457 C59.8598535,4.90257939 59.151735,6.74794668 58.1563159,9.13481172 C58.1050548,5.66732619 57.8630547,1.5455309 57.8487493,1.29378195 C57.8034488,0.536160117 57.1680496,-0.0362124937 56.388404,0.00178734768 C55.6278323,0.0469121593 55.0472705,0.697659442 55.0913789,1.45765627 C55.2308568,3.81127144 55.534847,10.2059322 55.3417238,12.5286725 C54.761162,10.027808 53.3103536,6.80138396 53.2412108,6.6481971 C52.9264914,5.95469999 52.108698,5.64595128 51.414885,5.95707498 C50.7198798,6.27057368 50.409929,7.08282028 50.7222641,7.77631739 C51.2181854,8.87237531 52.5545504,12.1059243 52.7893978,13.8824169 C53.0242452,15.6541595 52.871654,18.6300221 52.8037032,19.73083 C49.9748057,23.1805031 40.694162,31.2958442 40.5976004,31.3825313 C40.2936102,31.6473427 40.1231372,32.0320911 40.1267136,32.4358394 C40.1326741,32.8372128 40.3150683,33.2172112 40.6250191,33.4748976 L48.8172585,40.2495568 C45.1264591,43.3346689 42.6754632,46.7012174 41.1543198,49.2911441 L6.25504652,49.2911441 C6.25504652,49.2911441 6.93813051,50.6448884 9.07202288,51.932133 C11.4526838,53.3725645 14.7059756,54.3463105 14.7059756,54.3463105 L0,54.3463105 C0,54.3463105 3.3438928,57.4943598 8.44735271,59.0986656 C14.2315124,60.9119705 21.8396136,61.7657795 29.3213502,62.1030281 L23.8662152,66.8435083 L109.916915,66.8435083 C109.916915,66.8435083 122.773915,58.8849165 116.547479,48.6308968 L118.837539,38.3804396 L110.962403,43.08767 Z" id="Shape" fill="#1DA1F2"></path>
                <g id="Delete" transform="translate(107.617391, 51.023077)" fill="#FF0000">
                    <rect id="Rectangle-8" transform="translate(2.972281, 3.163980) rotate(45.000000) translate(-2.972281, -3.163980) " x="2.47228103" y="-0.446082741" width="0.562482909" height="7.22012579"></rect>
                    <rect id="Rectangle-8" transform="translate(2.972281, 3.020635) rotate(-45.000000) translate(-2.972281, -3.020635) " x="2.47228103" y="-0.58942766" width="0.562482909" height="7.22012579"></rect>
                </g>
            </g>
        </g>
    </g>
</svg>