<?xml version="1.0" encoding="UTF-8"?>
<svg width="191px" height="156px" viewBox="0 0 191 156" version="1.1" xmlns="http://www.w3.org/2000/svg" xmlns:xlink="http://www.w3.org/1999/xlink">
    <!-- Generator: Sketch 39.1 (31720) - http://www.bohemiancoding.com/sketch -->
    <title>Group 2</title>
    <desc>Created with Sketch.</desc>
    <defs></defs>
    <g id="Page-1" stroke="none" stroke-width="1" fill="none" fill-rule="evenodd">
        <g id="Group-2">
            <g id="Group" transform="translate(95.500000, 78.000000) rotate(180.000000) translate(-95.500000, -78.000000) translate(0.000000, -0.000000)" fill="#1DA1F2">
                <path d="M59.9498856,155.38623 C131.749291,155.38623 171.013593,95.8198033 171.013593,44.1659016 C171.013593,42.4740049 170.979181,40.7897803 170.903397,39.1131639 C178.525141,33.5954951 185.149635,26.7098852 190.37466,18.8715246 C183.380507,21.9847475 175.853892,24.080518 167.958255,25.0255328 C176.017333,20.1861443 182.204493,12.5308279 185.123459,3.40482787 C177.581521,7.88221967 169.229397,11.136418 160.336512,12.8933361 C153.213393,5.29536885 143.072349,0.543122951 131.843397,0.543122951 C110.286976,0.543122951 92.8063812,18.0490082 92.8063812,39.6275164 C92.8063812,42.6949623 93.1488426,45.6786541 93.8185703,48.5406148 C61.3760416,46.9058754 32.6083963,31.3512049 13.355481,7.69930328 C10.0031396,13.4760344 8.07012288,20.1863361 8.07012288,27.3463525 C8.07012288,40.908123 14.9614867,52.8804836 25.4409055,59.8845 C19.0366744,59.6863544 13.0206172,57.9258689 7.76239291,54.9955623 C7.75664691,55.1595669 7.75664691,55.3194605 7.75664691,55.4947431 C7.75664691,74.4257267 21.2118529,90.2315956 39.0729604,93.8132021 C35.7928908,94.7086677 32.341846,95.1888152 28.7799673,95.1888152 C26.2685842,95.1888152 23.8218117,94.9412867 21.443608,94.4838743 C26.4131279,110.015464 40.8235737,121.317792 57.9083334,121.633628 C44.5482556,132.120153 27.718235,138.365907 9.42681625,138.365907 C6.27992609,138.365907 3.17115103,138.18666 0.115749886,137.824804 C17.3914043,148.913591 37.904608,155.383755 59.9519924,155.383755" id="Shape"></path>
            </g>
            <g id="Delete" transform="translate(50.000000, 124.000000)" fill="#FF0000">
                <rect id="Rectangle-8" transform="translate(8.352018, 9.055653) rotate(45.000000) translate(-8.352018, -9.055653) " x="7.35201762" y="-1.2025628" width="1.65860345" height="20.5164309"></rect>
                <rect id="Rectangle-8" transform="translate(8.352018, 8.944347) rotate(-45.000000) translate(-8.352018, -8.944347) " x="7.35201762" y="-1.31386811" width="1.65860345" height="20.5164309"></rect>
            </g>
        </g>
    </g>
</svg>