<?xml version="1.0" encoding="UTF-8"?>
<svg width="260px" height="147px" viewBox="0 0 260 147" version="1.1" xmlns="http://www.w3.org/2000/svg" xmlns:xlink="http://www.w3.org/1999/xlink">
    <!-- Generator: Sketch 39.1 (31720) - http://www.bohemiancoding.com/sketch -->
    <title>noun_3298_cc</title>
    <desc>Created with Sketch.</desc>
    <defs></defs>
    <g id="Page-1" stroke="none" stroke-width="1" fill="none" fill-rule="evenodd">
        <g id="noun_3298_cc">
            <path d="M242.438865,94.5356341 C227.321598,86.1227989 212.381446,97.456287 212.381446,97.456287 C212.381446,97.456287 192.596685,69.555063 159.132412,70.0605105 C144.280817,70.2845749 132.21878,73.4944272 122.469654,78.1476708 L114.351026,71.2173079 C121.69087,69.5524576 156.030298,56.6427027 156.030298,56.6427027 C157.598285,56.0721202 158.40572,54.3421349 157.835306,52.7788952 C157.264893,51.2156554 155.535419,50.4053762 153.975246,50.9707479 L146.36452,53.7324714 C152.331725,46.9558271 157.908236,39.1213906 158.82767,37.8134801 C159.788778,36.4534615 159.45799,34.572363 158.100978,33.6109705 C156.738758,32.6547889 154.855611,32.9804639 153.897107,34.337877 C152.443724,36.4039589 149.891188,39.8665349 146.981817,43.5349375 C147.55744,37.995858 148.060134,30.3828805 148.080971,30.0311515 C148.19297,28.3663012 146.937539,26.9359368 145.273181,26.8265101 C143.554126,26.7040563 142.176277,27.9754913 142.066883,29.6377362 C142.059069,29.7289252 141.460004,38.8139535 140.845312,44.2253684 C140.425966,47.8885602 137.594735,53.2192077 136.180421,55.5823051 C135.180244,56.4785626 134.242577,57.2263123 133.41691,57.7291544 C126.3219,62.0879878 107.498247,66.8219989 107.308109,66.8688961 C106.214165,67.142463 105.359846,68.0100611 105.101988,69.1069343 C104.84413,70.2038075 105.221801,71.3553941 106.078724,72.0927222 L116.742075,81.1959883 C114.921439,82.2668075 113.204989,83.3871293 111.569282,84.5413213 L95.3268157,71.0505624 C101.395601,65.6469637 116.031011,52.4011122 120.716739,46.2888449 C126.634456,38.5482027 136.068422,13.8542256 136.464326,12.806855 C137.058181,11.2462206 136.276792,9.50581373 134.719224,8.91178262 C133.159051,8.32035692 131.419159,9.10197679 130.825304,10.6574003 C130.786234,10.7564055 129.239085,14.8051965 127.06422,20.0420496 C126.952221,12.4342828 126.423481,3.39094094 126.392225,2.83859623 C126.293249,1.1763513 124.904982,-0.0794512921 123.201555,0.00392149416 C121.539802,0.102926678 120.271347,1.53068564 120.367719,3.19814137 C120.67246,8.36204331 121.336641,22.39212 120.914691,27.4882816 C119.646236,22.0013101 116.476403,14.9224394 116.325334,14.5863429 C115.637712,13.0647895 113.850937,12.3873857 112.335043,13.0700003 C110.816544,13.7578258 110.139341,15.5399191 110.821753,17.0614725 C111.905279,19.4662563 114.825068,26.5607593 115.33818,30.4584371 C115.851292,34.3456932 115.517899,40.8748245 115.369436,43.29003 C109.188651,50.8587157 88.9116145,68.6640164 88.7006396,68.8542105 C88.0364592,69.4352146 87.6639972,70.2793641 87.6718111,71.1652 C87.6848343,72.045825 88.0833425,72.8795529 88.760546,73.4449246 L106.659556,88.3087291 C98.595625,95.0775572 93.2405079,102.463865 89.9170013,108.146241 L13.6664882,108.146241 C13.6664882,108.146241 15.1589406,111.116397 19.8212265,113.94065 C25.0226705,117.101 32.130703,119.237427 32.130703,119.237427 L0,119.237427 C0,119.237427 7.30598426,126.144342 18.4564009,129.664236 C31.0940606,133.642682 47.7168027,135.515964 64.0634541,136.255897 L52.144672,146.656652 L240.154605,146.656652 C240.154605,146.656652 268.245528,129.195265 254.641551,106.697639 L259.645043,84.2078302 L242.438865,94.5356341 Z" id="Shape" fill="#1DA1F2"></path>
            <g id="Delete" transform="translate(235.130435, 110.946154)" fill="#FF0000">
                <rect id="Rectangle-8" transform="translate(7.041614, 7.603341) rotate(45.000000) translate(-7.041614, -7.603341) " x="5.54161361" y="-0.317244699" width="3" height="15.8411715"></rect>
                <rect id="Rectangle-8" transform="translate(7.041614, 7.965890) rotate(-45.000000) translate(-7.041614, -7.965890) " x="5.54161361" y="0.0453039673" width="3" height="15.8411715"></rect>
            </g>
        </g>
    </g>
</svg>